<svg width="325" height="338" viewBox="0 0 325 338" fill="none" xmlns="http://www.w3.org/2000/svg">
<path d="M630.613 123.812V185.602C630.613 265.121 569.797 329.781 495.09 329.781C465.007 329.717 435.897 319.224 412.818 300.125C412.272 299.67 411.694 299.215 411.159 298.717C429.203 280.642 448.314 263.641 468.39 247.804C470.13 248.676 471.916 249.453 473.741 250.134C480.553 252.714 487.786 254.035 495.08 254.032C530.501 254.032 559.374 223.317 559.374 185.623V178.209L588.813 155.755L630.613 123.812ZM218.309 246.332C210.644 249.641 202.379 251.374 194.017 251.427C158.541 251.427 129.68 220.712 129.68 183.028V178.632L100.24 156.179L58.4404 124.267V183.007C58.4404 262.526 119.267 327.186 194.017 327.186C223.269 327.116 251.622 317.174 274.395 299.003C274.973 298.537 275.594 298.039 276.171 297.552C258.006 279.276 238.679 262.168 218.309 246.332ZM554.943 -94.9094C554.943 -94.9094 514.503 -58.899 486.133 -60.8795C457.764 -62.8601 423.423 -104.918 423.423 -104.918C423.423 -104.918 377.728 -61.4409 344.511 -60.8795C310.266 -60.297 265.598 -104.918 265.598 -104.918C265.598 -104.918 231.215 -62.8707 202.888 -60.8795C174.561 -58.8884 134.078 -94.9094 134.078 -94.9094L105.751 -50.8919C105.751 -50.8919 152.602 -10.3272 177.836 53.3796L203.808 73.1641C244.146 103.77 293.534 120.398 344.361 120.486H344.511C395.396 120.575 444.856 103.854 485.052 72.9735L511.41 52.85C536.729 -10.5602 583.302 -50.8919 583.302 -50.8919L554.943 -94.9094ZM688.829 -54.5777L688.486 -54.8531L688.133 -54.5777L604.052 9.58447L575.447 31.392L500.43 88.5851L498.461 90.0785C481.753 102.862 463.494 113.526 444.109 121.821C440.898 123.155 437.784 124.458 434.585 125.644C434.56 125.636 434.534 125.636 434.51 125.644C432.369 126.449 430.304 127.212 428.174 127.942C427.923 128.045 427.665 128.133 427.404 128.207C425.51 128.853 423.583 129.499 421.657 130.082C419.731 130.664 417.762 131.3 415.793 131.872C400.789 136.279 385.401 139.283 369.83 140.843C367.123 141.118 364.48 141.34 361.804 141.499L358.251 141.722C353.778 141.955 349.294 142.103 344.821 142.103H344.286C341.889 142.103 339.535 142.103 337.137 141.997C336.56 141.997 336.067 141.997 335.447 141.997C333.595 141.923 331.701 141.849 329.807 141.732C329.582 141.732 329.304 141.732 329.079 141.732C328.191 141.732 327.303 141.616 326.415 141.542C324.563 141.425 322.712 141.277 320.861 141.129C318.538 140.896 316.227 140.663 313.872 140.355C312.481 140.207 311.058 140.017 309.592 139.826C308.864 139.752 308.126 139.635 307.398 139.519C306.2 139.328 304.969 139.18 303.77 138.947C303.15 138.873 302.529 138.756 301.919 138.64C299.979 138.336 298.049 137.983 296.13 137.581C293.658 137.115 291.186 136.585 288.714 136.055C286.862 135.632 284.979 135.208 283.085 134.71C281.768 134.403 280.463 134.064 279.104 133.651C276.482 132.963 273.828 132.242 271.195 131.438C269.269 130.866 267.375 130.294 265.491 129.637C262.591 128.726 259.734 127.731 256.93 126.661C254.619 125.856 252.339 124.977 250.06 124.066C248.102 123.303 246.133 122.499 244.206 121.619C242.922 121.122 241.691 120.56 240.461 120.02C238.716 119.247 237.026 118.453 235.324 117.648C234.051 117.033 232.777 116.43 231.504 115.773C227.533 113.824 223.595 111.77 219.732 109.588C217.26 108.179 214.799 106.728 212.327 105.235C209.352 103.445 206.377 101.528 203.455 99.5789C200.534 97.6301 197.58 95.5753 194.723 93.51L190.442 90.3326L188.752 89.0299L113.649 31.8368L84.477 9.59506L0 -54.8637V6.0258C0.012617 9.64929 0.219803 13.2696 0.620682 16.8713C0.845412 18.6612 1.11295 20.4617 1.42329 22.1669C2.03545 25.7015 2.85007 29.1987 3.86321 32.6418C4.39828 34.3576 4.93335 36.031 5.55403 37.715C6.17472 39.399 6.7954 41.0831 7.49099 42.7777C8.18658 44.4723 8.92498 46.0186 9.72759 47.6285C16.1458 60.5552 25.4828 71.8473 37.0162 80.631L58.419 96.9311L113.606 139.063L129.658 151.317L202.824 207.155L226.677 225.372C230.187 228.052 233.74 230.805 237.175 233.548C237.175 233.548 237.175 233.548 237.25 233.548C239.99 235.72 242.687 237.901 245.351 240.157C247.171 241.608 248.947 243.091 250.702 244.627C255.646 248.743 260.512 252.98 265.299 257.337C266.958 258.788 268.573 260.239 270.2 261.764L273.55 264.856C275.294 266.466 277.028 268.034 278.761 269.75C283.202 273.986 287.601 278.223 291.881 282.576C293.968 284.641 296.012 286.706 297.981 288.772C300.528 291.366 303.032 294.004 305.472 296.63L344.179 338L378.595 301.026C381.805 297.594 385.016 294.226 388.29 290.869C390.677 288.38 393.106 285.944 395.578 283.455C397.237 281.739 398.981 280.013 400.715 278.339C403.026 276.083 405.348 273.827 407.66 271.614C417.494 262.262 427.607 253.164 438.03 244.426C439.614 243.081 441.241 241.704 442.857 240.369C445.286 238.389 447.672 236.44 450.112 234.491C451.3 233.538 452.499 232.542 453.697 231.621C457.015 228.952 460.375 226.325 463.767 223.762L483.372 208.786L559.352 150.851L575.404 138.555L630.549 96.465L651.952 80.112C663.481 71.3215 672.818 60.0282 679.241 47.1026C685.664 34.1769 689.003 19.9642 689 5.55978V-54.3977L688.829 -54.5777ZM344.586 -87.6967C352.606 -87.7156 360.44 -90.0867 367.099 -94.5106C373.758 -98.9344 378.943 -105.212 381.999 -112.551C385.054 -119.89 385.843 -127.961 384.266 -135.744C382.689 -143.526 378.817 -150.672 373.138 -156.277C367.46 -161.883 360.23 -165.696 352.362 -167.237C344.494 -168.777 336.342 -167.975 328.935 -164.931C321.527 -161.888 315.198 -156.74 310.745 -150.138C306.293 -143.536 303.918 -135.775 303.92 -127.838C303.922 -122.558 304.975 -117.33 307.021 -112.454C309.066 -107.577 312.063 -103.148 315.84 -99.4194C319.618 -95.6908 324.101 -92.7362 329.033 -90.7247C333.966 -88.7132 339.251 -87.6842 344.586 -87.6967Z" fill="#F7F7F7"/>
</svg>
